999
dxflib 3.26.4.0
  0
SECTION
  2
HEADER
  9
$ACADVER
  1
AC1015
  9
$HANDSEED
  5
FFFF
  9
$ANGBASE
 50
0.0
  9
$ANGDIR
 70
0
  9
$ATTMODE
 70
1
  9
$AUNITS
 70
0
  9
$AUPREC
 70
0
  9
$CECOLOR
 62
256
  9
$CELTSCALE
 40
1.0
  9
$CHAMFERA
 40
0.0
  9
$CHAMFERB
 40
0.0
  9
$CHAMFERC
 40
0.0
  9
$CHAMFERD
 40
0.0
  9
$CMLJUST
 70
0
  9
$CMLSCALE
 40
1.0
  9
$DIMADEC
 70
0
  9
$DIMALT
 70
0
  9
$DIMALTD
 70
2
  9
$DIMALTF
 40
25.3999999999999986
  9
$DIMALTRND
 40
0.0
  9
$DIMALTTD
 70
2
  9
$DIMALTTZ
 70
0
  9
$DIMALTU
 70
2
  9
$DIMALTZ
 70
0
  9
$DIMAPOST
  1

  9
$DIMASZ
 40
2.5
  9
$DIMATFIT
 70
0
  9
$DIMAUNIT
 70
0
  9
$DIMAZIN
 70
2
  9
$DIMBLK
  1
0
  9
$DIMBLK1
  1
0
  9
$DIMBLK2
  1
0
  9
$DIMCEN
 40
0.09
  9
$DIMCLRD
 70
0
  9
$DIMCLRE
 70
0
  9
$DIMDEC
 70
0
  9
$DIMDLE
 40
0.0
  9
$DIMDLI
 40
5.0
  9
$DIMDSEP
 70
46
  9
$DIMEXE
 40
1.25
  9
$DIMEXO
 40
0.625
  9
$DIMFRAC
 70
0
  9
$DIMGAP
 40
0.625
  9
$DIMJUST
 70
0
  9
$DIMLDRBLK
  1

  9
$DIMLFAC
 40
1.0
  9
$DIMLIM
 70
0
  9
$DIMLUNIT
 70
2
  9
$DIMLWD
 70
-2
  9
$DIMLWE
 70
-2
  9
$DIMPOST
  1

  9
$DIMRND
 40
0.0
  9
$DIMSAH
 70
0
  9
$DIMSCALE
 40
1.0
  9
$DIMSD1
 70
0
  9
$DIMSD2
 70
0
  9
$DIMSE1
 70
0
  9
$DIMSE2
 70
0
  9
$DIMSOXD
 70
0
  9
$DIMTAD
 70
1
  9
$DIMTDEC
 70
4
  9
$DIMTFAC
 40
1.0
  9
$DIMTIH
 70
0
  9
$DIMTIX
 70
0
  9
$DIMTM
 40
0.0
  9
$DIMTOFL
 70
0
  9
$DIMTOH
 70
1
  9
$DIMTOL
 70
0
  9
$DIMTOLJ
 70
1
  9
$DIMTP
 40
0.0
  9
$DIMTSZ
 40
0.0
  9
$DIMTVP
 40
0.0
  9
$DIMTXSTY
  7
Standard
  9
$DIMTXT
 40
2.5
  9
$DIMTZIN
 70
0
  9
$DIMUPT
 70
0
  9
$DIMZIN
 70
8
  9
$DISPSILH
 70
0
  9
$DWGCODEPAGE
  3
ANSI_1252
  9
$ELEVATION
 40
0.0
  9
$FILLETRAD
 40
0.5
  9
$FILLMODE
 70
1
  9
$INSUNITS
 70
4
  9
$LIMCHECK
 70
0
  9
$LTSCALE
 40
1.0
  9
$LUNITS
 70
2
  9
$LUPREC
 70
4
  9
$MAXACTVP
 70
64
  9
$MEASUREMENT
 70
1
  9
$MIRRTEXT
 70
0
  9
$ORTHOMODE
 70
0
  9
$PDMODE
 70
0
  9
$PDSIZE
 40
0.0
  9
$PELEVATION
 40
0.0
  9
$PLIMCHECK
 70
0
  9
$PLINEGEN
 70
0
  9
$PLINEWID
 40
0.0
  9
$PROXYGRAPHICS
 70
1
  9
$PSLTSCALE
 70
1
  9
$PUCSNAME
  2

  9
$QTEXTMODE
 70
0
  9
$REGENMODE
 70
1
  9
$SHADEDGE
 70
3
  9
$SHADEDIF
 70
70
  9
$SKETCHINC
 40
0.1
  9
$SKPOLY
 70
0
  9
$SPLFRAME
 70
0
  9
$SPLINESEGS
 70
8
  9
$SPLINETYPE
 70
6
  9
$SURFTAB1
 70
6
  9
$SURFTAB2
 70
6
  9
$SURFTYPE
 70
6
  9
$SURFU
 70
6
  9
$SURFV
 70
6
  9
$TEXTSIZE
 40
0.2
  9
$TEXTSTYLE
  7
Standard
  9
$THICKNESS
 40
0.0
  9
$TILEMODE
 70
1
  9
$TRACEWID
 40
0.05
  9
$TREEDEPTH
 70
3020
  9
$UCSNAME
  2

  9
$UNITMODE
 70
0
  9
$USERI1
 70
0
  9
$USERI2
 70
0
  9
$USERI3
 70
0
  9
$USERI4
 70
0
  9
$USERI5
 70
0
  9
$USERR1
 40
0.0
  9
$USERR2
 40
0.0
  9
$USERR3
 40
0.0
  9
$USERR4
 40
0.0
  9
$USERR5
 40
0.0
  9
$USRTIMER
 70
1
  9
$VISRETAIN
 70
1
  0
ENDSEC
  0
SECTION
  2
TABLES
  0
TABLE
  2
VPORT
  5
8
100
AcDbSymbolTable
 70
1
  0
VPORT
  5
30
100
AcDbSymbolTableRecord
100
AcDbViewportTableRecord
  2
*Active
 70
0
 10
0.0
 20
0.0
 11
1.0
 21
1.0
 12
286.3055555555554861
 22
148.5
 13
0.0
 23
0.0
 14
10.0
 24
10.0
 15
10.0
 25
10.0
 16
0.0
 26
0.0
 36
1.0
 17
0.0
 27
0.0
 37
0.0
 40
297.0
 41
1.92798353909465
 42
50.0
 43
0.0
 44
0.0
 50
0.0
 51
0.0
 71
0
 72
100
 73
1
 74
3
 75
1
 76
1
 77
0
 78
0
281
0
 65
1
110
0.0
120
0.0
130
0.0
111
1.0
121
0.0
131
0.0
112
0.0
122
1.0
132
0.0
 79
0
146
0.0
  0
ENDTAB
  0
TABLE
  2
LTYPE
  5
5
100
AcDbSymbolTable
 70
50
  0
LTYPE
  5
16
100
AcDbSymbolTableRecord
100
AcDbLinetypeTableRecord
  2
Continuous
 70
0
  3
Solid line
 72
65
 73
0
 40
0.0
  0
LTYPE
  5
31
100
AcDbSymbolTableRecord
100
AcDbLinetypeTableRecord
  2
FENCELINE1
 70
0
  3
Fenceline circle ----0-----0----0-----0----0-----0--
 72
65
 73
2
 40
8.8900000000000006
 49
6.3499999999999996
 74
0
 49
-2.54
 74
0
  0
LTYPE
  5
32
100
AcDbSymbolTableRecord
100
AcDbLinetypeTableRecord
  2
HIDDEN
 70
0
  3
Hidden __ __ __ __ __ __ __ __ __ __ __ __ __ __
 72
65
 73
2
 40
9.5249999999999986
 49
6.3499999999999996
 74
0
 49
-3.1749999999999998
 74
0
  0
LTYPE
  5
33
100
AcDbSymbolTableRecord
100
AcDbLinetypeTableRecord
  2
HIDDENX2
 70
0
  3
Hidden (2x) ____ ____ ____ ____ ____ ____ ____ 
 72
65
 73
2
 40
19.0499999999999972
 49
12.6999999999999993
 74
0
 49
-6.3499999999999996
 74
0
  0
LTYPE
  5
34
100
AcDbSymbolTableRecord
100
AcDbLinetypeTableRecord
  2
ACAD_ISO14W100
 70
0
  3
ISO dash triple-dot __ . . . __ . . . __ . . . _
 72
65
 73
8
 40
24.0000000000000036
 49
12.0
 74
0
 49
-2.9500000000000002
 74
0
 49
0.1
 74
0
 49
-2.9000000000000004
 74
0
 49
0.1
 74
0
 49
-2.9000000000000004
 74
0
 49
0.1
 74
0
 49
-2.9500000000000002
 74
0
  0
LTYPE
  5
35
100
AcDbSymbolTableRecord
100
AcDbLinetypeTableRecord
  2
ACAD_ISO02W100
 70
0
  3
ISO dash __ __ __ __ __ __ __ __ __ __ __ __ __
 72
65
 73
2
 40
15.0
 49
12.0
 74
0
 49
-3.0
 74
0
  0
LTYPE
  5
36
100
AcDbSymbolTableRecord
100
AcDbLinetypeTableRecord
  2
ACAD_ISO03W100
 70
0
  3
ISO dash space __    __    __    __    __    __
 72
65
 73
2
 40
30.0
 49
12.0
 74
0
 49
-18.0
 74
0
  0
LTYPE
  5
37
100
AcDbSymbolTableRecord
100
AcDbLinetypeTableRecord
  2
ACAD_ISO04W100
 70
0
  3
ISO long-dash dot ____ . ____ . ____ . ____ . _
 72
65
 73
4
 40
30.0
 49
24.0
 74
0
 49
-2.9500000000000002
 74
0
 49
0.1
 74
0
 49
-2.9500000000000002
 74
0
  0
LTYPE
  5
38
100
AcDbSymbolTableRecord
100
AcDbLinetypeTableRecord
  2
DIVIDE2
 70
0
  3
Divide (.5x) __..__..__..__..__..__..__..__.._
 72
65
 73
6
 40
15.8749999999999982
 49
6.3499999999999996
 74
0
 49
-3.125
 74
0
 49
0.1
 74
0
 49
-3.0750000000000002
 74
0
 49
0.1
 74
0
 49
-3.125
 74
0
  0
LTYPE
  5
39
100
AcDbSymbolTableRecord
100
AcDbLinetypeTableRecord
  2
DOT2
 70
0
  3
Dot (.5x) ........................................
 72
65
 73
2
 40
3.1749999999999998
 49
0.1
 74
0
 49
-3.0749999999999997
 74
0
  0
LTYPE
  5
3A
100
AcDbSymbolTableRecord
100
AcDbLinetypeTableRecord
  2
DASHED2
 70
0
  3
Dashed (.5x) _ _ _ _ _ _ _ _ _ _ _ _ _ _ _ _ _ 
 72
65
 73
2
 40
9.5249999999999986
 49
6.3499999999999996
 74
0
 49
-3.1749999999999998
 74
0
  0
LTYPE
  5
3B
100
AcDbSymbolTableRecord
100
AcDbLinetypeTableRecord
  2
PHANTOMX2
 70
0
  3
Phantom (2x) ____________    ____    ____   _
 72
65
 73
6
 40
127.0000000000000142
 49
63.5
 74
0
 49
-12.6999999999999993
 74
0
 49
12.6999999999999993
 74
0
 49
-12.6999999999999993
 74
0
 49
12.6999999999999993
 74
0
 49
-12.6999999999999993
 74
0
  0
LTYPE
  5
3C
100
AcDbSymbolTableRecord
100
AcDbLinetypeTableRecord
  2
DASHDOT
 70
0
  3
Dash dot __ . __ . __ . __ . __ . __ . __ . __
 72
65
 73
4
 40
25.4000000000000021
 49
12.6999999999999993
 74
0
 49
-6.2999999999999998
 74
0
 49
0.1
 74
0
 49
-6.2999999999999998
 74
0
  0
LTYPE
  5
3D
100
AcDbSymbolTableRecord
100
AcDbLinetypeTableRecord
  2
HOT_WATER_SUPPLY
 70
0
  3
Hot water supply ---- HW ---- HW ---- HW ----
 72
65
 73
2
 40
17.7800000000000011
 49
12.6999999999999993
 74
0
 49
-5.0800000000000001
 74
0
  0
LTYPE
  5
3E
100
AcDbSymbolTableRecord
100
AcDbLinetypeTableRecord
  2
TRACKS
 70
0
  3
Tracks -|-|-|-|-|-|-|-|-|-|-|-|-|-|-|-|-|-|-|-|-|-|-|-|-
 72
65
 73
1
 40
3.8100000000000001
 49
3.8100000000000001
 74
0
  0
LTYPE
  5
3F
100
AcDbSymbolTableRecord
100
AcDbLinetypeTableRecord
  2
ACAD_ISO12W100
 70
0
  3
ISO dash double-dot __ . . __ . . __ . . __ . . 
 72
65
 73
6
 40
21.0
 49
12.0
 74
0
 49
-2.9500000000000002
 74
0
 49
0.1
 74
0
 49
-2.9000000000000004
 74
0
 49
0.1
 74
0
 49
-2.9500000000000002
 74
0
  0
LTYPE
  5
40
100
AcDbSymbolTableRecord
100
AcDbLinetypeTableRecord
  2
CENTER
 70
0
  3
Center ____ _ ____ _ ____ _ ____ _ ____ _ ____
 72
65
 73
4
 40
50.8000000000000043
 49
31.75
 74
0
 49
-6.3499999999999996
 74
0
 49
6.3499999999999996
 74
0
 49
-6.3499999999999996
 74
0
  0
LTYPE
  5
41
100
AcDbSymbolTableRecord
100
AcDbLinetypeTableRecord
  2
BORDER
 70
0
  3
Border __ __ . __ __ . __ __ . __ __ . __ __ .
 72
65
 73
6
 40
44.4499999999999957
 49
12.6999999999999993
 74
0
 49
-6.3499999999999996
 74
0
 49
12.6999999999999993
 74
0
 49
-6.2999999999999998
 74
0
 49
0.1
 74
0
 49
-6.2999999999999998
 74
0
  0
LTYPE
  5
14
100
AcDbSymbolTableRecord
100
AcDbLinetypeTableRecord
  2
ByBlock
 70
0
  3

 72
65
 73
0
 40
0.0
  0
LTYPE
  5
42
100
AcDbSymbolTableRecord
100
AcDbLinetypeTableRecord
  2
ACAD_ISO15W100
 70
0
  3
ISO double-dash triple-dot __ __ . . . __ __ . .
 72
65
 73
10
 40
39.0000000000000071
 49
12.0
 74
0
 49
-3.0
 74
0
 49
12.0
 74
0
 49
-2.9500000000000002
 74
0
 49
0.1
 74
0
 49
-2.9000000000000004
 74
0
 49
0.1
 74
0
 49
-2.9000000000000004
 74
0
 49
0.1
 74
0
 49
-2.9500000000000002
 74
0
  0
LTYPE
  5
43
100
AcDbSymbolTableRecord
100
AcDbLinetypeTableRecord
  2
PHANTOM
 70
0
  3
Phantom ______  __  __  ______  __  __  ______ 
 72
65
 73
6
 40
63.5000000000000071
 49
31.75
 74
0
 49
-6.3499999999999996
 74
0
 49
6.3499999999999996
 74
0
 49
-6.3499999999999996
 74
0
 49
6.3499999999999996
 74
0
 49
-6.3499999999999996
 74
0
  0
LTYPE
  5
44
100
AcDbSymbolTableRecord
100
AcDbLinetypeTableRecord
  2
ACAD_ISO08W100
 70
0
  3
ISO long-dash short-dash ____ __ ____ __ ____ _
 72
65
 73
4
 40
36.0
 49
24.0
 74
0
 49
-3.0
 74
0
 49
6.0
 74
0
 49
-3.0
 74
0
  0
LTYPE
  5
45
100
AcDbSymbolTableRecord
100
AcDbLinetypeTableRecord
  2
ACAD_ISO06W100
 70
0
  3
ISO long-dash triple-dot ____ ... ____ ... ____
 72
65
 73
8
 40
36.0000000000000071
 49
24.0
 74
0
 49
-2.9500000000000002
 74
0
 49
0.1
 74
0
 49
-2.9000000000000004
 74
0
 49
0.1
 74
0
 49
-2.9000000000000004
 74
0
 49
0.1
 74
0
 49
-2.9500000000000002
 74
0
  0
LTYPE
  5
46
100
AcDbSymbolTableRecord
100
AcDbLinetypeTableRecord
  2
DASHDOT2
 70
0
  3
Dash dot (.5x) _._._._._._._._._._._._._._._.
 72
65
 73
4
 40
12.6999999999999993
 49
6.3499999999999996
 74
0
 49
-3.125
 74
0
 49
0.1
 74
0
 49
-3.125
 74
0
  0
LTYPE
  5
47
100
AcDbSymbolTableRecord
100
AcDbLinetypeTableRecord
  2
BORDER2
 70
0
  3
Border (.5x) __.__.__.__.__.__.__.__.__.__.__.
 72
65
 73
6
 40
22.2250000000000014
 49
6.3499999999999996
 74
0
 49
-3.1749999999999998
 74
0
 49
6.3499999999999996
 74
0
 49
-3.125
 74
0
 49
0.1
 74
0
 49
-3.125
 74
0
  0
LTYPE
  5
48
100
AcDbSymbolTableRecord
100
AcDbLinetypeTableRecord
  2
BATTING
 70
0
  3
Batting SSSSSSSSSSSSSSSSSSSSSSSSSSSSSSSSSSSSSSSSSSSSSSS
 72
65
 73
2
 40
2.5425400000000002
 49
0.00254
 74
0
 49
-2.54
 74
0
  0
LTYPE
  5
49
100
AcDbSymbolTableRecord
100
AcDbLinetypeTableRecord
  2
DASHDOTX2
 70
0
  3
Dash dot (2x) ____  .  ____  .  ____  .  ___
 72
65
 73
4
 40
50.7999999999999972
 49
25.3999999999999986
 74
0
 49
-12.6499999999999986
 74
0
 49
0.1
 74
0
 49
-12.6499999999999986
 74
0
  0
LTYPE
  5
4A
100
AcDbSymbolTableRecord
100
AcDbLinetypeTableRecord
  2
ACAD_ISO10W100
 70
0
  3
ISO dash dot __ . __ . __ . __ . __ . __ . __ . 
 72
65
 73
4
 40
18.0
 49
12.0
 74
0
 49
-2.9500000000000002
 74
0
 49
0.1
 74
0
 49
-2.9500000000000002
 74
0
  0
LTYPE
  5
4B
100
AcDbSymbolTableRecord
100
AcDbLinetypeTableRecord
  2
DOT
 70
0
  3
Dot . . . . . . . . . . . . . . . . . . . . . . . .
 72
65
 73
2
 40
6.3499999999999996
 49
0.1
 74
0
 49
-6.25
 74
0
  0
LTYPE
  5
4C
100
AcDbSymbolTableRecord
100
AcDbLinetypeTableRecord
  2
ACAD_ISO07W100
 70
0
  3
ISO dot . . . . . . . . . . . . . . . . . . . . 
 72
65
 73
2
 40
3.0
 49
0.1
 74
0
 49
-2.8999999999999999
 74
0
  0
LTYPE
  5
4D
100
AcDbSymbolTableRecord
100
AcDbLinetypeTableRecord
  2
ACAD_ISO13W100
 70
0
  3
ISO double-dash double-dot __ __ . . __ __ . . _
 72
65
 73
8
 40
36.0000000000000071
 49
12.0
 74
0
 49
-3.0
 74
0
 49
12.0
 74
0
 49
-2.9500000000000002
 74
0
 49
0.1
 74
0
 49
-2.9000000000000004
 74
0
 49
0.1
 74
0
 49
-2.9500000000000002
 74
0
  0
LTYPE
  5
4E
100
AcDbSymbolTableRecord
100
AcDbLinetypeTableRecord
  2
DASHEDX2
 70
0
  3
Dashed (2x) ____  ____  ____  ____  ____  ___
 72
65
 73
2
 40
38.0999999999999943
 49
25.3999999999999986
 74
0
 49
-12.6999999999999993
 74
0
  0
LTYPE
  5
4F
100
AcDbSymbolTableRecord
100
AcDbLinetypeTableRecord
  2
PHANTOM2
 70
0
  3
Phantom (.5x) ___ _ _ ___ _ _ ___ _ _ ___ _ _
 72
65
 73
6
 40
31.7500000000000036
 49
15.875
 74
0
 49
-3.1749999999999998
 74
0
 49
3.1749999999999998
 74
0
 49
-3.1749999999999998
 74
0
 49
3.1749999999999998
 74
0
 49
-3.1749999999999998
 74
0
  0
LTYPE
  5
50
100
AcDbSymbolTableRecord
100
AcDbLinetypeTableRecord
  2
HIDDEN2
 70
0
  3
Hidden (.5x) _ _ _ _ _ _ _ _ _ _ _ _ _ _ _ _ _ 
 72
65
 73
2
 40
4.7624999999999993
 49
3.1749999999999998
 74
0
 49
-1.5874999999999999
 74
0
  0
LTYPE
  5
51
100
AcDbSymbolTableRecord
100
AcDbLinetypeTableRecord
  2
DIVIDEX2
 70
0
  3
Divide (2x) ________  .  .  ________  .  .  _
 72
65
 73
6
 40
63.5
 49
25.3999999999999986
 74
0
 49
-12.6499999999999986
 74
0
 49
0.1
 74
0
 49
-12.5999999999999979
 74
0
 49
0.1
 74
0
 49
-12.6499999999999986
 74
0
  0
LTYPE
  5
52
100
AcDbSymbolTableRecord
100
AcDbLinetypeTableRecord
  2
DOTX2
 70
0
  3
Dot (2x) .  .  .  .  .  .  .  .  .  .  .  .  .  .
 72
65
 73
2
 40
12.6999999999999993
 49
0.1
 74
0
 49
-12.5999999999999996
 74
0
  0
LTYPE
  5
53
100
AcDbSymbolTableRecord
100
AcDbLinetypeTableRecord
  2
BORDERX2
 70
0
  3
Border (2x) ____  ____  .  ____  ____  .  ___
 72
65
 73
6
 40
88.8999999999999773
 49
25.3999999999999986
 74
0
 49
-12.6999999999999993
 74
0
 49
25.3999999999999986
 74
0
 49
-12.6499999999999986
 74
0
 49
0.1
 74
0
 49
-12.6499999999999986
 74
0
  0
LTYPE
  5
54
100
AcDbSymbolTableRecord
100
AcDbLinetypeTableRecord
  2
DASHED
 70
0
  3
Dashed __ __ __ __ __ __ __ __ __ __ __ __ __ _
 72
65
 73
2
 40
19.0499999999999972
 49
12.6999999999999993
 74
0
 49
-6.3499999999999996
 74
0
  0
LTYPE
  5
55
100
AcDbSymbolTableRecord
100
AcDbLinetypeTableRecord
  2
CENTER2
 70
0
  3
Center (.5x) ___ _ ___ _ ___ _ ___ _ ___ _ ___
 72
65
 73
4
 40
28.5750000000000028
 49
19.0500000000000007
 74
0
 49
-3.1749999999999998
 74
0
 49
3.1749999999999998
 74
0
 49
-3.1749999999999998
 74
0
  0
LTYPE
  5
56
100
AcDbSymbolTableRecord
100
AcDbLinetypeTableRecord
  2
CENTERX2
 70
0
  3
Center (2x) ________  __  ________  __  _____
 72
65
 73
4
 40
101.6000000000000085
 49
63.5
 74
0
 49
-12.6999999999999993
 74
0
 49
12.6999999999999993
 74
0
 49
-12.6999999999999993
 74
0
  0
LTYPE
  5
57
100
AcDbSymbolTableRecord
100
AcDbLinetypeTableRecord
  2
GAS_LINE
 70
0
  3
Gas line ----GAS----GAS----GAS----GAS----GAS----GAS--
 72
65
 73
2
 40
17.7800000000000011
 49
12.6999999999999993
 74
0
 49
-5.0800000000000001
 74
0
  0
LTYPE
  5
58
100
AcDbSymbolTableRecord
100
AcDbLinetypeTableRecord
  2
DRAINAGE
 70
0
  3
Drainage ---->---->---->----
 72
65
 73
1
 40
5.0800000000000001
 49
5.0800000000000001
 74
0
  0
LTYPE
  5
15
100
AcDbSymbolTableRecord
100
AcDbLinetypeTableRecord
  2
ByLayer
 70
0
  3

 72
65
 73
0
 40
0.0
  0
LTYPE
  5
59
100
AcDbSymbolTableRecord
100
AcDbLinetypeTableRecord
  2
ZIGZAG
 70
0
  3
Zig zag /\/\/\/\/\/\/\/\/\/\/\/\/\/\/\/\/\/\/\/\/\/\/\/
 72
65
 73
2
 40
5.0825399999999998
 49
0.00254
 74
0
 49
-5.0800000000000001
 74
0
  0
LTYPE
  5
5A
100
AcDbSymbolTableRecord
100
AcDbLinetypeTableRecord
  2
DRAINAGE2
 70
0
  3
Drainage reversed----<----<----<----
 72
65
 73
1
 40
5.0800000000000001
 49
5.0800000000000001
 74
0
  0
LTYPE
  5
5B
100
AcDbSymbolTableRecord
100
AcDbLinetypeTableRecord
  2
ACAD_ISO11W100
 70
0
  3
ISO double-dash dot __ __ . __ __ . __ __ . __ _
 72
65
 73
6
 40
33.0
 49
12.0
 74
0
 49
-3.0
 74
0
 49
12.0
 74
0
 49
-2.9500000000000002
 74
0
 49
0.1
 74
0
 49
-2.9500000000000002
 74
0
  0
LTYPE
  5
5C
100
AcDbSymbolTableRecord
100
AcDbLinetypeTableRecord
  2
ACAD_ISO05W100
 70
0
  3
ISO long-dash double-dot ____ .. ____ .. ____ . 
 72
65
 73
6
 40
33.0000000000000071
 49
24.0
 74
0
 49
-2.9500000000000002
 74
0
 49
0.1
 74
0
 49
-2.9000000000000004
 74
0
 49
0.1
 74
0
 49
-2.9500000000000002
 74
0
  0
LTYPE
  5
5D
100
AcDbSymbolTableRecord
100
AcDbLinetypeTableRecord
  2
FENCELINE2
 70
0
  3
Fenceline square ----[]-----[]----[]-----[]----[]---
 72
65
 73
2
 40
8.8900000000000006
 49
6.3499999999999996
 74
0
 49
-2.54
 74
0
  0
LTYPE
  5
5E
100
AcDbSymbolTableRecord
100
AcDbLinetypeTableRecord
  2
DIVIDE
 70
0
  3
Divide ____ . . ____ . . ____ . . ____ . . ____
 72
65
 73
6
 40
31.7500000000000036
 49
12.6999999999999993
 74
0
 49
-6.2999999999999998
 74
0
 49
0.1
 74
0
 49
-6.25
 74
0
 49
0.1
 74
0
 49
-6.2999999999999998
 74
0
  0
LTYPE
  5
5F
100
AcDbSymbolTableRecord
100
AcDbLinetypeTableRecord
  2
ACAD_ISO09W100
 70
0
  3
ISO long-dash double-short-dash ____ __ __ ____
 72
65
 73
6
 40
45.0
 49
24.0
 74
0
 49
-3.0
 74
0
 49
6.0
 74
0
 49
-3.0
 74
0
 49
6.0
 74
0
 49
-3.0
 74
0
  0
ENDTAB
  0
TABLE
  2
LAYER
  5
2
100
AcDbSymbolTable
 70
3
  0
LAYER
  5
10
100
AcDbSymbolTableRecord
100
AcDbLayerTableRecord
  2
0
 70
0
 62
7
420
0
  6
Continuous
370
50
390
F
  0
LAYER
  5
60
100
AcDbSymbolTableRecord
100
AcDbLayerTableRecord
  2
AXLE
 70
0
 62
5
420
255
  6
DASHDOT
370
-3
390
F
  0
LAYER
  5
61
100
AcDbSymbolTableRecord
100
AcDbLayerTableRecord
  2
dim
 70
0
 62
1
420
16711680
  6
Continuous
370
25
390
F
  0
ENDTAB
  0
TABLE
  2
STYLE
  5
3
100
AcDbSymbolTable
 70
2
  0
STYLE
  5
62
100
AcDbSymbolTableRecord
100
AcDbTextStyleTableRecord
  2
Standard
 70
0
 40
0.0
 41
1.0
 50
0.0
 71
0
 42
2.5
  3

  4

1001
ACAD
1000
txt
1071
0
  0
STYLE
  5
63
100
AcDbSymbolTableRecord
100
AcDbTextStyleTableRecord
  2
textstyle0
 70
0
 40
0.0
 41
1.0
 50
0.0
 71
0
 42
6.2112499999999997
  3

  4

1001
ACAD
1000
Standard
1071
0
  0
ENDTAB
  0
TABLE
  2
VIEW
  5
6
100
AcDbSymbolTable
 70
0
  0
ENDTAB
  0
TABLE
  2
UCS
  5
7
100
AcDbSymbolTable
 70
0
  0
ENDTAB
  0
TABLE
  2
APPID
  5
9
100
AcDbSymbolTable
 70
1
  0
APPID
  5
12
100
AcDbSymbolTableRecord
100
AcDbRegAppTableRecord
  2
ACAD
 70
0
  0
APPID
  5
64
100
AcDbSymbolTableRecord
100
AcDbRegAppTableRecord
  2
QCAD
 70
0
  0
ENDTAB
  0
TABLE
  2
DIMSTYLE
  5
A
100
AcDbSymbolTable
 70
1
100
AcDbDimStyleTable
 71
0
  0
DIMSTYLE
105
27
100
AcDbSymbolTableRecord
100
AcDbDimStyleTableRecord
  2
Standard
 41
2.5
 42
0.625
 43
3.75
 44
1.25
 70
0
 73
0
 74
0
 77
1
 78
8
140
2.5
141
2.5
143
0.03937007874016
147
0.625
171
3
172
1
271
2
272
2
274
3
278
44
283
0
284
8
340
62
  0
ENDTAB
  0
TABLE
  2
BLOCK_RECORD
  5
1
100
AcDbSymbolTable
 70
1
  0
BLOCK_RECORD
  5
1F
100
AcDbSymbolTableRecord
100
AcDbBlockTableRecord
  2
*Model_Space
340
22
  0
BLOCK_RECORD
  5
1B
100
AcDbSymbolTableRecord
100
AcDbBlockTableRecord
  2
*Paper_Space
340
1E
  0
BLOCK_RECORD
  5
23
100
AcDbSymbolTableRecord
100
AcDbBlockTableRecord
  2
*Paper_Space0
340
26
  0
ENDTAB
  0
ENDSEC
  0
SECTION
  2
BLOCKS
  0
BLOCK
  5
20
100
AcDbEntity
  8
0
100
AcDbBlockBegin
  2
*Model_Space
 70
0
 10
0.0
 20
0.0
 30
0.0
  3
*Model_Space
  1

  0
ENDBLK
  5
21
100
AcDbEntity
  8
0
100
AcDbBlockEnd
  0
BLOCK
  5
1C
100
AcDbEntity
 67
1
  8
0
100
AcDbBlockBegin
  2
*Paper_Space
 70
0
 10
0.0
 20
0.0
 30
0.0
  3
*Paper_Space
  1

  0
ENDBLK
  5
1D
100
AcDbEntity
 67
1
  8
0
100
AcDbBlockEnd
  0
BLOCK
  5
24
100
AcDbEntity
  8
0
100
AcDbBlockBegin
  2
*Paper_Space0
 70
0
 10
0.0
 20
0.0
 30
0.0
  3
*Paper_Space0
  1

  0
ENDBLK
  5
25
100
AcDbEntity
  8
0
100
AcDbBlockEnd
  0
ENDSEC
  0
SECTION
  2
ENTITIES
  0
LINE
  5
65
100
AcDbEntity
  8
0
 62
256
370
-1
 48
1.0
  6
ByLayer
100
AcDbLine
 10
1240.8699473183680766
 20
287.6408949083577227
 30
0.0
 11
1240.8699473183680766
 21
407.6408949083577227
 31
0.0
  0
DIMENSION
  5
66
100
AcDbEntity
  8
dim
 62
256
370
-1
 48
1.0
  6
ByLayer
100
AcDbDimension
 10
1140.8699473183680766
 20
491.8789946422093635
 30
0.0
 11
1130.8699473183680766
 21
495.6289946422093635
 31
0.0
 70
128
 71
8
 72
2
 74
0
 75
0
 41
1.0
 42
0.0
  1

  3
Standard
100
AcDbAlignedDimension
 13
1120.8699473183680766
 23
507.6408949083573816
 33
0.0
 14
1140.8699473183680766
 24
507.6408949083578932
 34
0.0
 50
0.0
100
AcDbRotatedDimension
1001
ACAD
1000
DSTYLE
1002
{
1070
279
1070
2
1070
144
1040
1.0
1070
40
1040
2.0
1002
}
  0
DIMENSION
  5
67
100
AcDbEntity
  8
dim
 62
256
370
-1
 48
1.0
  6
ByLayer
100
AcDbDimension
 10
1460.869947318368304
 20
491.8789946422093635
 30
0.0
 11
1450.869947318368304
 21
495.6289946422093635
 31
0.0
 70
0
 71
8
 72
2
 74
0
 75
0
 41
1.0
 42
0.0
  1

  3
Standard
100
AcDbAlignedDimension
 13
1440.869947318368304
 23
507.6408949083573816
 33
0.0
 14
1460.869947318368304
 24
507.6408949083578932
 34
0.0
 50
0.0
100
AcDbRotatedDimension
1001
ACAD
1000
DSTYLE
1002
{
1070
144
1040
1.0
1070
40
1040
2.0
1002
}
  0
DIMENSION
  5
68
100
AcDbEntity
  8
dim
 62
256
370
-1
 48
1.0
  6
ByLayer
100
AcDbDimension
 10
1182.8686218846301017
 20
507.6408949083574953
 30
0.0
 11
1179.1186218846301017
 21
532.6408949083578364
 31
0.0
 70
0
 71
8
 72
2
 74
0
 75
0
 41
1.0
 42
0.0
  1

  3
Standard
100
AcDbAlignedDimension
 13
1140.8699473183680766
 23
557.6408949083577227
 33
0.0
 14
1140.8699473183680766
 24
507.6408949083578932
 34
0.0
 50
90.0
100
AcDbRotatedDimension
1001
ACAD
1000
DSTYLE
1002
{
1070
144
1040
1.0
1070
40
1040
2.0
1002
}
  0
DIMENSION
  5
69
100
AcDbEntity
  8
dim
 62
256
370
-1
 48
1.0
  6
ByLayer
100
AcDbDimension
 10
1502.8686218846301017
 20
507.6408949083574953
 30
0.0
 11
1499.1186218846301017
 21
532.6408949083578364
 31
0.0
 70
0
 71
8
 72
2
 74
0
 75
0
 41
1.0
 42
0.0
  1

  3
Standard
100
AcDbAlignedDimension
 13
1460.869947318368304
 23
557.6408949083577227
 33
0.0
 14
1460.869947318368304
 24
507.6408949083578932
 34
0.0
 50
90.0
100
AcDbRotatedDimension
1001
ACAD
1000
DSTYLE
1002
{
1070
144
1040
1.0
1070
40
1040
2.0
1002
}
  0
LINE
  5
6A
100
AcDbEntity
  8
AXLE
 62
256
370
-1
 48
1.0
  6
ByLayer
100
AcDbLine
 10
1400.8699473183680766
 20
557.6408949083577227
 30
0.0
 11
1400.8699473183680766
 21
480.8237037940220944
 31
0.0
  0
DIMENSION
  5
6B
100
AcDbEntity
  8
dim
 62
256
370
-1
 48
1.0
  6
ByLayer
100
AcDbDimension
 10
1009.0896561588040186
 20
490.6408949083578932
 30
0.0
 11
1005.3396561588040186
 21
499.1408949083577227
 31
0.0
 70
0
 71
8
 72
2
 74
0
 75
0
 41
1.0
 42
0.0
  1

  3
Standard
100
AcDbAlignedDimension
 13
1020.8699473183680766
 23
507.6408949083577227
 33
0.0
 14
1040.8699473183680766
 24
490.6408949083577795
 34
0.0
 50
90.0
100
AcDbRotatedDimension
1001
ACAD
1000
DSTYLE
1002
{
1070
144
1040
1.0
1070
40
1040
2.0
1002
}
  0
DIMENSION
  5
6C
100
AcDbEntity
  8
dim
 62
256
370
-1
 48
1.0
  6
ByLayer
100
AcDbDimension
 10
1329.0896561588042459
 20
490.6408949083578932
 30
0.0
 11
1325.3396561588042459
 21
499.1408949083577227
 31
0.0
 70
0
 71
8
 72
2
 74
0
 75
0
 41
1.0
 42
0.0
  1

  3
Standard
100
AcDbAlignedDimension
 13
1340.869947318368304
 23
507.6408949083577227
 33
0.0
 14
1360.869947318368304
 24
490.6408949083577795
 34
0.0
 50
90.0
100
AcDbRotatedDimension
1001
ACAD
1000
DSTYLE
1002
{
1070
144
1040
1.0
1070
40
1040
2.0
1002
}
  0
DIMENSION
  5
6D
100
AcDbEntity
  8
dim
 62
256
370
-1
 48
1.0
  6
ByLayer
100
AcDbDimension
 10
1448.869947318368304
 20
546.8760606987217443
 30
0.0
 11
1436.869947318368304
 21
550.6260606987217443
 31
0.0
 70
0
 71
8
 72
2
 74
0
 75
0
 41
1.0
 42
0.0
  1

  3
Standard
100
AcDbAlignedDimension
 13
1424.869947318368304
 23
515.640894908357609
 33
0.0
 14
1448.869947318368304
 24
520.6408949083570405
 34
0.0
 50
0.0
100
AcDbRotatedDimension
1001
ACAD
1000
DSTYLE
1002
{
1070
144
1040
1.0
1070
40
1040
2.0
1002
}
  0
LWPOLYLINE
  5
6E
100
AcDbEntity
  8
0
 62
256
370
-1
 48
1.0
  6
ByLayer
100
AcDbPolyline
 90
6
 70
0
 10
1440.8699473183680766
 20
510.6408949083577227
 10
1457.8699473183680766
 20
510.6408949083577227
 10
1457.8699473183680766
 20
554.6408949083577227
 10
1343.8699473183680766
 20
554.6408949083577227
 10
1343.8699473183680766
 20
510.6408949083577227
 10
1360.8699473183680766
 20
510.6408949083577227
  0
DIMENSION
  5
6F
100
AcDbEntity
  8
dim
 62
256
370
-1
 48
1.0
  6
ByLayer
100
AcDbDimension
 10
1369.0038685660092597
 20
468.7031593315907685
 30
0.0
 11
1400.9369079421890092
 21
472.4531593315907685
 31
0.0
 70
0
 71
8
 72
2
 74
0
 75
0
 41
1.0
 42
0.0
  1

  3
Standard
100
AcDbAlignedDimension
 13
1369.0038685660092597
 23
500.0158949083574953
 33
0.0
 14
1432.8699473183685313
 24
487.1408949083577227
 34
0.0
 50
0.0
100
AcDbRotatedDimension
1001
ACAD
1000
DSTYLE
1002
{
1070
144
1040
1.0
1070
40
1040
2.0
1002
}
  0
DIMENSION
  5
70
100
AcDbEntity
  8
dim
 62
256
370
-1
 48
1.0
  6
ByLayer
100
AcDbDimension
 10
1376.869947318368304
 20
564.2858537288440175
 30
0.0
 11
1370.369947318368304
 21
568.0358537288440175
 31
0.0
 70
0
 71
8
 72
2
 74
0
 75
0
 41
1.0
 42
0.0
  1

  3
Standard
100
AcDbAlignedDimension
 13
1376.869947318368304
 23
536.6408949083577227
 33
0.0
 14
1363.869947318368304
 24
540.6408949083578364
 34
0.0
 50
0.0
100
AcDbRotatedDimension
1001
ACAD
1000
DSTYLE
1002
{
1070
144
1040
1.0
1070
40
1040
2.0
1002
}
  0
DIMENSION
  5
71
100
AcDbEntity
  8
dim
 62
256
370
-1
 48
1.0
  6
ByLayer
100
AcDbDimension
 10
1049.0038685660090323
 20
477.5010698132128937
 30
0.0
 11
1053.9329900842210463
 21
481.2510698132128937
 31
0.0
 70
128
 71
8
 72
2
 74
0
 75
0
 41
1.0
 42
0.0
  1

  3
Standard
100
AcDbAlignedDimension
 13
1049.0038685660090323
 23
490.6408949083576658
 33
0.0
 14
1050.8699473183680766
 24
494.6408949083577227
 34
0.0
 50
0.0
100
AcDbRotatedDimension
1001
ACAD
1000
DSTYLE
1002
{
1070
279
1070
2
1070
144
1040
1.0
1070
40
1040
2.0
1002
}
  0
DIMENSION
  5
72
100
AcDbEntity
  8
dim
 62
256
370
-1
 48
1.0
  6
ByLayer
100
AcDbDimension
 10
1376.869947318368304
 20
477.5010698132128937
 30
0.0
 11
1372.9369079421887818
 21
481.2510698132128937
 31
0.0
 70
0
 71
8
 72
2
 74
0
 75
0
 41
1.0
 42
0.0
  1

  3
Standard
100
AcDbAlignedDimension
 13
1369.0038685660092597
 23
490.6408949083576658
 33
0.0
 14
1376.869947318368304
 24
494.6408949083573248
 34
0.0
 50
0.0
100
AcDbRotatedDimension
1001
ACAD
1000
DSTYLE
1002
{
1070
144
1040
1.0
1070
40
1040
2.0
1002
}
  0
LWPOLYLINE
  5
73
100
AcDbEntity
  8
0
 62
256
370
-1
 48
1.0
  6
ByLayer
100
AcDbPolyline
 90
4
 70
1
 10
1050.8699473183680766
 20
494.6408949083577227
 10
1110.8699473183680766
 20
494.6408949083577227
 10
1110.8699473183680766
 20
536.6408949083577227
 10
1050.8699473183680766
 20
536.6408949083577227
  0
DIMENSION
  5
74
100
AcDbEntity
  8
dim
 62
256
370
-1
 48
1.0
  6
ByLayer
100
AcDbDimension
 10
1020.8699473183679629
 20
575.5715708034209683
 30
0.0
 11
1080.8699473183680766
 21
579.3215708034209683
 31
0.0
 70
0
 71
8
 72
2
 74
0
 75
0
 41
1.0
 42
0.0
  1

  3
Standard
100
AcDbAlignedDimension
 13
1020.8699473183679629
 23
557.6408949083573816
 33
0.0
 14
1140.8699473183680766
 24
557.6408949083577227
 34
0.0
 50
0.0
100
AcDbRotatedDimension
1001
ACAD
1000
DSTYLE
1002
{
1070
144
1040
1.0
1070
40
1040
2.0
1002
}
  0
DIMENSION
  5
75
100
AcDbEntity
  8
dim
 62
256
370
-1
 48
1.0
  6
ByLayer
100
AcDbDimension
 10
1340.869947318368304
 20
575.5715708034208546
 30
0.0
 11
1400.869947318368304
 21
579.3215708034208546
 31
0.0
 70
0
 71
8
 72
2
 74
0
 75
0
 41
1.0
 42
0.0
  1

  3
Standard
100
AcDbAlignedDimension
 13
1340.8699473183680766
 23
557.6408949083573816
 33
0.0
 14
1460.869947318368304
 24
557.6408949083577227
 34
0.0
 50
0.0
100
AcDbRotatedDimension
1001
ACAD
1000
DSTYLE
1002
{
1070
144
1040
1.0
1070
40
1040
2.0
1002
}
  0
ARC
  5
76
100
AcDbEntity
  8
0
 62
256
370
-1
 48
1.0
  6
ByLayer
100
AcDbCircle
 10
1240.8699473183680766
 20
507.6408949083577227
 30
0.0
 40
120.0
100
AcDbArc
 50
180.0
 51
270.0
  0
LWPOLYLINE
  5
77
100
AcDbEntity
  8
0
 62
256
370
-1
 48
1.0
  6
ByLayer
100
AcDbPolyline
 90
6
 70
0
 10
1440.8699473183680766
 20
507.6408949083577227
 10
1460.8699473183680766
 20
507.6408949083577227
 10
1460.8699473183680766
 20
557.6408949083577227
 10
1340.8699473183680766
 20
557.6408949083577227
 10
1340.8699473183680766
 20
507.6408949083577227
 10
1360.8699473183680766
 20
507.6408949083577227
  0
LINE
  5
78
100
AcDbEntity
  8
AXLE
 62
256
370
-1
 48
1.0
  6
ByLayer
100
AcDbLine
 10
1080.8699473183680766
 20
557.6408949083577227
 30
0.0
 11
1080.8699473183680766
 21
476.401647551656481
 31
0.0
  0
LINE
  5
79
100
AcDbEntity
  8
AXLE
 62
256
370
-1
 48
1.0
  6
ByLayer
100
AcDbLine
 10
1400.869947318368304
 20
557.6408949083577227
 30
0.0
 11
1400.869947318368304
 21
476.401647551656481
 31
0.0
  0
LWPOLYLINE
  5
7A
100
AcDbEntity
  8
0
 62
256
370
-1
 48
1.0
  6
ByLayer
100
AcDbPolyline
 90
6
 70
0
 10
1040.8699473183680766
 20
507.6408949083577227
 10
1020.8699473183679629
 20
507.6408949083577227
 10
1020.8699473183679629
 20
557.6408949083577227
 10
1140.8699473183680766
 20
557.6408949083577227
 10
1140.8699473183680766
 20
507.6408949083577227
 10
1120.8699473183680766
 20
507.6408949083577227
  0
LWPOLYLINE
  5
7B
100
AcDbEntity
  8
0
 62
256
370
-1
 48
1.0
  6
ByLayer
100
AcDbPolyline
 90
4
 70
1
 10
1049.0038685660090323
 20
490.6408949083577227
 10
1043.8699473183680766
 20
490.6408949083577227
 10
1043.8699473183680766
 20
540.6408949083577227
 10
1049.0038685660090323
 20
540.6408949083577227
  0
LWPOLYLINE
  5
7C
100
AcDbEntity
  8
0
 62
256
370
-1
 48
1.0
  6
ByLayer
100
AcDbPolyline
 90
4
 70
1
 10
1112.7360260707271209
 20
490.6408949083577227
 10
1117.8699473183680766
 20
490.6408949083577227
 10
1117.8699473183680766
 20
540.6408949083577227
 10
1112.7360260707271209
 20
540.6408949083577227
  0
LWPOLYLINE
  5
7D
100
AcDbEntity
  8
0
 62
256
370
-1
 48
1.0
  6
ByLayer
100
AcDbPolyline
 90
4
 70
1
 10
1369.0038685660092597
 20
490.6408949083577227
 10
1363.869947318368304
 20
490.6408949083577227
 10
1363.869947318368304
 20
540.6408949083577227
 10
1369.0038685660092597
 20
540.6408949083577227
  0
LWPOLYLINE
  5
7E
100
AcDbEntity
  8
0
 62
256
370
-1
 48
1.0
  6
ByLayer
100
AcDbPolyline
 90
4
 70
1
 10
1432.7360260707273483
 20
491.6408949083577227
 10
1437.869947318368304
 20
491.6408949083577227
 10
1437.869947318368304
 20
541.6408949083577227
 10
1432.7360260707273483
 20
541.6408949083577227
  0
LWPOLYLINE
  5
7F
100
AcDbEntity
  8
0
 62
256
370
-1
 48
1.0
  6
ByLayer
100
AcDbPolyline
 90
4
 70
1
 10
1394.9154853967520467
 20
285.2059772067370886
 10
1488.1499162903189699
 20
285.2059772067370886
 10
1488.1499162903189699
 20
326.6143206928002201
 10
1394.9154853967520467
 20
326.6143206928002201
  0
ARC
  5
80
100
AcDbEntity
  8
0
 62
256
370
-1
 48
1.0
  6
ByLayer
100
AcDbCircle
 10
1240.8699473183680766
 20
507.6408949083577227
 30
0.0
 40
200.0
100
AcDbArc
 50
180.0
 51
270.0
  0
MTEXT
  5
81
100
AcDbEntity
  8
0
 62
256
370
-1
 48
1.0
  6
ByLayer
100
AcDbMText
 10
1441.5327008435360767
 20
305.9101489497689386
 30
0.0
 40
6.2112499999999997
 41
73.6723444522883568
 71
5
 72
5
  1
\FStandard|c0;study rail curve\PAuthor: Daniel\PDate: 2025-04-\H5.99998;04
  7
textstyle0
 50
0.0
 73
1
 44
1.0
  0
DIMENSION
  5
82
100
AcDbEntity
  8
dim
 62
256
370
-1
 48
1.0
  6
ByLayer
100
AcDbDimension
 10
1043.8699473183680766
 20
527.2923616012411685
 30
0.0
 11
1036.3699473183680766
 21
531.0423616012411685
 31
0.0
 70
0
 71
8
 72
2
 74
0
 75
0
 41
1.0
 42
0.0
  1

  3
Standard
100
AcDbAlignedDimension
 13
1043.8699473183680766
 23
520.6408949083577227
 33
0.0
 14
1028.8699473183680766
 24
520.6408949083574953
 34
0.0
 50
0.0
100
AcDbRotatedDimension
1001
ACAD
1000
DSTYLE
1002
{
1070
144
1040
1.0
1070
40
1040
2.0
1002
}
  0
DIMENSION
  5
83
100
AcDbEntity
  8
dim
 62
256
370
-1
 48
1.0
  6
ByLayer
100
AcDbDimension
 10
1117.8699473183680766
 20
527.2923616012411685
 30
0.0
 11
1125.3699473183680766
 21
531.0423616012411685
 31
0.0
 70
128
 71
8
 72
2
 74
0
 75
0
 41
1.0
 42
0.0
  1

  3
Standard
100
AcDbAlignedDimension
 13
1117.8699473183680766
 23
520.6408949083577227
 33
0.0
 14
1132.8699473183680766
 24
520.6408949083574953
 34
0.0
 50
180.0
100
AcDbRotatedDimension
1001
ACAD
1000
DSTYLE
1002
{
1070
279
1070
2
1070
144
1040
1.0
1070
40
1040
2.0
1002
}
  0
DIMENSION
  5
84
100
AcDbEntity
  8
dim
 62
256
370
-1
 48
1.0
  6
ByLayer
100
AcDbDimension
 10
1363.869947318368304
 20
527.2923616012409411
 30
0.0
 11
1356.369947318368304
 21
531.0423616012409411
 31
0.0
 70
0
 71
8
 72
2
 74
0
 75
0
 41
1.0
 42
0.0
  1

  3
Standard
100
AcDbAlignedDimension
 13
1363.869947318368304
 23
520.640894908357609
 33
0.0
 14
1348.869947318368304
 24
520.6408949083574953
 34
0.0
 50
0.0
100
AcDbRotatedDimension
1001
ACAD
1000
DSTYLE
1002
{
1070
144
1040
1.0
1070
40
1040
2.0
1002
}
  0
DIMENSION
  5
85
100
AcDbEntity
  8
dim
 62
256
370
-1
 48
1.0
  6
ByLayer
100
AcDbDimension
 10
1437.869947318368304
 20
527.2923616012412822
 30
0.0
 11
1445.369947318368304
 21
531.0423616012412822
 31
0.0
 70
0
 71
8
 72
2
 74
0
 75
0
 41
1.0
 42
0.0
  1

  3
Standard
100
AcDbAlignedDimension
 13
1437.869947318368304
 23
520.6408949083577227
 33
0.0
 14
1452.869947318368304
 24
520.64089490835795
 34
0.0
 50
180.0
100
AcDbRotatedDimension
1001
ACAD
1000
DSTYLE
1002
{
1070
144
1040
1.0
1070
40
1040
2.0
1002
}
  0
LWPOLYLINE
  5
86
100
AcDbEntity
  8
0
 62
256
370
-1
 48
1.0
  6
ByLayer
100
AcDbPolyline
 90
4
 70
1
 10
975.3605463757005509
 20
285.2059772067370886
 10
1488.1499162903189699
 20
285.2059772067370886
 10
1488.1499162903189699
 20
595.7685533522105743
 10
975.3605463757005509
 20
595.7685533522105743
  0
ARC
  5
87
100
AcDbEntity
  8
0
 62
256
370
-1
 48
1.0
  6
ByLayer
100
AcDbCircle
 10
1240.8699473183680766
 20
507.6408949083577227
 30
0.0
 40
120.0
100
AcDbArc
 50
270.0
 51
0.000000000000007
  0
ARC
  5
88
100
AcDbEntity
  8
0
 62
256
370
-1
 48
1.0
  6
ByLayer
100
AcDbCircle
 10
1240.8699473183680766
 20
507.6408949083577227
 30
0.0
 40
200.0
100
AcDbArc
 50
270.0
 51
0.000000000000007
  0
DIMENSION
  5
89
100
AcDbEntity
  8
dim
 62
256
370
-1
 48
1.0
  6
ByLayer
100
AcDbDimension
 10
1080.8699473183680766
 20
554.6408949083578364
 30
0.0
 11
1077.1199473183680766
 21
545.640894908357609
 31
0.0
 70
0
 71
8
 72
2
 74
0
 75
0
 41
1.0
 42
0.0
  1

  3
Standard
100
AcDbAlignedDimension
 13
1056.8699473183680766
 23
536.6408949083577227
 33
0.0
 14
1023.8699473183679629
 24
554.6408949083574953
 34
0.0
 50
90.0
100
AcDbRotatedDimension
1001
ACAD
1000
DSTYLE
1002
{
1070
144
1040
1.0
1070
40
1040
2.0
1002
}
  0
DIMENSION
  5
8A
100
AcDbEntity
  8
dim
 62
256
370
-1
 48
1.0
  6
ByLayer
100
AcDbDimension
 10
1400.869947318368304
 20
545.1408949083577227
 30
0.0
 11
1397.119947318368304
 21
549.890894908357609
 31
0.0
 70
0
 71
8
 72
2
 74
0
 75
0
 41
1.0
 42
0.0
  1

  3
Standard
100
AcDbAlignedDimension
 13
1376.8699473183685313
 23
545.1408949083577227
 33
0.0
 14
1343.8699473183680766
 24
554.6408949083574953
 34
0.0
 50
90.0
100
AcDbRotatedDimension
1001
ACAD
1000
DSTYLE
1002
{
1070
144
1040
1.0
1070
40
1040
2.0
1002
}
  0
ARC
  5
8B
100
AcDbEntity
  8
0
 62
256
370
-1
 48
1.0
  6
ByLayer
100
AcDbCircle
 10
1240.8699473183680766
 20
507.6408949083577227
 30
0.0
 40
220.0
100
AcDbArc
 50
270.0
 51
0.000000000000007
  0
DIMENSION
  5
8C
100
AcDbEntity
  8
dim
 62
256
370
-1
 48
1.0
  6
ByLayer
100
AcDbDimension
 10
1009.0896561588040186
 20
507.640894908357609
 30
0.0
 11
1005.3396561588040186
 21
511.640894908357609
 31
0.0
 70
0
 71
8
 72
2
 74
0
 75
0
 41
1.0
 42
0.0
  1

  3
Standard
100
AcDbAlignedDimension
 13
1030.8699473183680766
 23
515.6408949083574953
 33
0.0
 14
1020.8699473183680766
 24
507.6408949083577227
 34
0.0
 50
90.0
100
AcDbRotatedDimension
1001
ACAD
1000
DSTYLE
1002
{
1070
144
1040
1.0
1070
40
1040
2.0
1002
}
  0
DIMENSION
  5
8D
100
AcDbEntity
  8
dim
 62
256
370
-1
 48
1.0
  6
ByLayer
100
AcDbDimension
 10
1329.0896561588042459
 20
507.640894908357609
 30
0.0
 11
1325.3396561588042459
 21
511.640894908357609
 31
0.0
 70
0
 71
8
 72
2
 74
0
 75
0
 41
1.0
 42
0.0
  1

  3
Standard
100
AcDbAlignedDimension
 13
1350.869947318368304
 23
515.6408949083574953
 33
0.0
 14
1340.869947318368304
 24
507.6408949083577227
 34
0.0
 50
90.0
100
AcDbRotatedDimension
1001
ACAD
1000
DSTYLE
1002
{
1070
144
1040
1.0
1070
40
1040
2.0
1002
}
  0
ARC
  5
8E
100
AcDbEntity
  8
0
 62
256
370
-1
 48
1.0
  6
ByLayer
100
AcDbCircle
 10
1240.8699473183680766
 20
507.6408949083577227
 30
0.0
 40
100.0
100
AcDbArc
 50
270.0
 51
0.000000000000007
  0
DIMENSION
  5
8F
100
AcDbEntity
  8
dim
 62
256
370
-1
 48
1.0
  6
ByLayer
100
AcDbDimension
 10
1151.9124040533758944
 20
510.6408949083575521
 30
0.0
 11
1147.0463734074080548
 21
525.8375812674579493
 31
0.0
 70
128
 71
8
 72
2
 74
0
 75
0
 41
1.0
 42
0.0
  1

  3
Standard
100
AcDbAlignedDimension
 13
1132.8699473183680766
 23
520.64089490835795
 33
0.0
 14
1130.8699473183680766
 24
510.6408949083577795
 34
0.0
 50
90.0
100
AcDbRotatedDimension
1001
ACAD
1000
DSTYLE
1002
{
1070
279
1070
2
1070
144
1040
1.0
1070
40
1040
2.0
1002
}
  0
DIMENSION
  5
90
100
AcDbEntity
  8
dim
 62
256
370
-1
 48
1.0
  6
ByLayer
100
AcDbDimension
 10
1471.9124040533761217
 20
522.64089490835795
 30
0.0
 11
1468.1624040533761217
 21
516.6408949083578364
 31
0.0
 70
0
 71
8
 72
2
 74
0
 75
0
 41
1.0
 42
0.0
  1

  3
Standard
100
AcDbAlignedDimension
 13
1452.869947318368304
 23
522.64089490835795
 33
0.0
 14
1450.869947318368304
 24
510.6408949083577795
 34
0.0
 50
90.0
100
AcDbRotatedDimension
1001
ACAD
1000
DSTYLE
1002
{
1070
144
1040
1.0
1070
40
1040
2.0
1002
}
  0
DIMENSION
  5
91
100
AcDbEntity
  8
dim
 62
256
370
-1
 48
1.0
  6
ByLayer
100
AcDbDimension
 10
1097.5927383753551112
 20
494.6408949083576658
 30
0.0
 11
1093.8427383753551112
 21
515.6408949083577227
 31
0.0
 70
128
 71
8
 72
2
 74
0
 75
0
 41
1.0
 42
0.0
  1

  3
Standard
100
AcDbAlignedDimension
 13
1104.8699473183680766
 23
536.6408949083574953
 33
0.0
 14
1104.8699473183680766
 24
494.64089490835795
 34
0.0
 50
90.0
100
AcDbRotatedDimension
1001
ACAD
1000
DSTYLE
1002
{
1070
279
1070
2
1070
144
1040
1.0
1070
40
1040
2.0
1002
}
  0
DIMENSION
  5
92
100
AcDbEntity
  8
dim
 62
256
370
-1
 48
1.0
  6
ByLayer
100
AcDbDimension
 10
1417.5927383753551112
 20
545.14089490835795
 30
0.0
 11
1413.8427383753551112
 21
516.6408949083572679
 31
0.0
 70
128
 71
8
 72
2
 74
0
 75
0
 41
1.0
 42
0.0
  1

  3
Standard
100
AcDbAlignedDimension
 13
1432.8699473183685313
 23
545.1408949083569269
 33
0.0
 14
1432.8699473183685313
 24
488.140894908357609
 34
0.0
 50
90.0
100
AcDbRotatedDimension
1001
ACAD
1000
DSTYLE
1002
{
1070
279
1070
2
1070
144
1040
1.0
1070
40
1040
2.0
1002
}
  0
ARC
  5
93
100
AcDbEntity
  8
0
 62
256
370
-1
 48
1.0
  6
ByLayer
100
AcDbCircle
 10
1240.8699473183680766
 20
507.6408949083577227
 30
0.0
 40
100.0
100
AcDbArc
 50
180.0
 51
270.0
  0
ARC
  5
94
100
AcDbEntity
  8
0
 62
256
370
-1
 48
1.0
  6
ByLayer
100
AcDbCircle
 10
1240.8699473183680766
 20
507.6408949083577227
 30
0.0
 40
220.0
100
AcDbArc
 50
180.0
 51
270.0
  0
LINE
  5
95
100
AcDbEntity
  8
AXLE
 62
256
370
-1
 48
1.0
  6
ByLayer
100
AcDbLine
 10
1030.8699473183680766
 20
515.6408949083577227
 30
0.0
 11
1130.8699473183680766
 21
515.6408949083577227
 31
0.0
  0
LINE
  5
96
100
AcDbEntity
  8
AXLE
 62
256
370
-1
 48
1.0
  6
ByLayer
100
AcDbLine
 10
1350.869947318368304
 20
516.6408949083577227
 30
0.0
 11
1450.869947318368304
 21
516.6408949083577227
 31
0.0
  0
LWPOLYLINE
  5
97
100
AcDbEntity
  8
0
 62
256
370
-1
 48
1.0
  6
ByLayer
100
AcDbPolyline
 90
4
 70
1
 10
1043.8699473183680766
 20
510.6408949083577227
 10
1028.8699473183680766
 20
510.6408949083577227
 10
1028.8699473183680766
 20
520.6408949083577227
 10
1043.8699473183680766
 20
520.6408949083577227
  0
LWPOLYLINE
  5
98
100
AcDbEntity
  8
0
 62
256
370
-1
 48
1.0
  6
ByLayer
100
AcDbPolyline
 90
4
 70
1
 10
1117.8699473183680766
 20
510.6408949083577227
 10
1132.8699473183680766
 20
510.6408949083577227
 10
1132.8699473183680766
 20
520.6408949083577227
 10
1117.8699473183680766
 20
520.6408949083577227
  0
LWPOLYLINE
  5
99
100
AcDbEntity
  8
0
 62
256
370
-1
 48
1.0
  6
ByLayer
100
AcDbPolyline
 90
4
 70
1
 10
1363.869947318368304
 20
510.6408949083577227
 10
1348.869947318368304
 20
510.6408949083577227
 10
1348.869947318368304
 20
520.6408949083577227
 10
1363.869947318368304
 20
520.6408949083577227
  0
LWPOLYLINE
  5
9A
100
AcDbEntity
  8
0
 62
256
370
-1
 48
1.0
  6
ByLayer
100
AcDbPolyline
 90
4
 70
1
 10
1437.869947318368304
 20
510.6408949083577227
 10
1452.869947318368304
 20
510.6408949083577227
 10
1452.869947318368304
 20
522.64089490835795
 10
1437.869947318368304
 20
522.6408949083577227
  0
DIMENSION
  5
9B
100
AcDbEntity
  8
dim
 62
256
370
-1
 48
1.0
  6
ByLayer
100
AcDbDimension
 10
1170.3217135882289313
 20
490.6408949083573248
 30
0.0
 11
1166.5717135882289313
 21
515.6408949083577227
 31
0.0
 70
0
 71
8
 72
2
 74
0
 75
0
 41
1.0
 42
0.0
  1

  3
Standard
100
AcDbAlignedDimension
 13
1120.8699473183680766
 23
540.6408949083574953
 33
0.0
 14
1120.8699473183680766
 24
490.6408949083578932
 34
0.0
 50
90.0
100
AcDbRotatedDimension
1001
ACAD
1000
DSTYLE
1002
{
1070
144
1040
1.0
1070
40
1040
2.0
1002
}
  0
DIMENSION
  5
9C
100
AcDbEntity
  8
dim
 62
256
370
-1
 48
1.0
  6
ByLayer
100
AcDbDimension
 10
1490.3217135882291586
 20
490.6408949083573248
 30
0.0
 11
1486.5717135882291586
 21
515.6408949083577227
 31
0.0
 70
0
 71
8
 72
2
 74
0
 75
0
 41
1.0
 42
0.0
  1

  3
Standard
100
AcDbAlignedDimension
 13
1440.869947318368304
 23
540.6408949083574953
 33
0.0
 14
1440.869947318368304
 24
490.6408949083578932
 34
0.0
 50
90.0
100
AcDbRotatedDimension
1001
ACAD
1000
DSTYLE
1002
{
1070
144
1040
1.0
1070
40
1040
2.0
1002
}
  0
LINE
  5
9D
100
AcDbEntity
  8
AXLE
 62
256
370
-1
 48
1.0
  6
ByLayer
100
AcDbLine
 10
1240.8699473183680766
 20
398.3015871388396931
 30
0.0
 11
1240.8699473183680766
 21
557.0869951662151607
 31
0.0
  0
DIMENSION
  5
9E
100
AcDbEntity
  8
dim
 62
256
370
-1
 48
1.0
  6
ByLayer
100
AcDbDimension
 10
1050.8699473183680766
 20
477.5010698132130642
 30
0.0
 11
1080.8699473183680766
 21
481.2510698132130642
 31
0.0
 70
128
 71
8
 72
2
 74
0
 75
0
 41
1.0
 42
0.0
  1

  3
Standard
100
AcDbAlignedDimension
 13
1050.8699473183680766
 23
494.6408949083577227
 33
0.0
 14
1110.8699473183680766
 24
494.6408949083577227
 34
0.0
 50
0.0
100
AcDbRotatedDimension
1001
ACAD
1000
DSTYLE
1002
{
1070
279
1070
2
1070
144
1040
1.0
1070
40
1040
2.0
1002
}
  0
DIMENSION
  5
9F
100
AcDbEntity
  8
dim
 62
256
370
-1
 48
1.0
  6
ByLayer
100
AcDbDimension
 10
1376.869947318368304
 20
477.5010698132130642
 30
0.0
 11
1404.869947318368304
 21
481.2510698132130642
 31
0.0
 70
0
 71
8
 72
2
 74
0
 75
0
 41
1.0
 42
0.0
  1

  3
Standard
100
AcDbAlignedDimension
 13
1376.869947318368304
 23
494.6408949083573248
 33
0.0
 14
1432.8699473183685313
 24
487.1408949083577227
 34
0.0
 50
0.0
100
AcDbRotatedDimension
1001
ACAD
1000
DSTYLE
1002
{
1070
144
1040
1.0
1070
40
1040
2.0
1002
}
  0
DIMENSION
  5
A0
100
AcDbEntity
  8
dim
 62
256
370
-1
 48
1.0
  6
ByLayer
100
AcDbDimension
 10
1043.8699473183680766
 20
564.2858537288440175
 30
0.0
 11
1033.8699473183680766
 21
568.0358537288440175
 31
0.0
 70
0
 71
8
 72
2
 74
0
 75
0
 41
1.0
 42
0.0
  1

  3
Standard
100
AcDbAlignedDimension
 13
1043.8699473183680766
 23
540.6408949083578364
 33
0.0
 14
1023.8699473183679629
 24
554.6408949083577227
 34
0.0
 50
0.0
100
AcDbRotatedDimension
1001
ACAD
1000
DSTYLE
1002
{
1070
144
1040
1.0
1070
40
1040
2.0
1002
}
  0
DIMENSION
  5
A1
100
AcDbEntity
  8
dim
 62
256
370
-1
 48
1.0
  6
ByLayer
100
AcDbDimension
 10
1363.869947318368304
 20
564.2858537288443586
 30
0.0
 11
1353.869947318368304
 21
568.0358537288443586
 31
0.0
 70
0
 71
8
 72
2
 74
0
 75
0
 41
1.0
 42
0.0
  1

  3
Standard
100
AcDbAlignedDimension
 13
1363.869947318368304
 23
540.6408949083578364
 33
0.0
 14
1343.8699473183680766
 24
554.6408949083574953
 34
0.0
 50
0.0
100
AcDbRotatedDimension
1001
ACAD
1000
DSTYLE
1002
{
1070
144
1040
1.0
1070
40
1040
2.0
1002
}
  0
DIMENSION
  5
A2
100
AcDbEntity
  8
dim
 62
256
370
-1
 48
1.0
  6
ByLayer
100
AcDbDimension
 10
1023.8699473183679629
 20
564.2858537288440175
 30
0.0
 11
1017.8216513983286404
 21
568.0358537288440175
 31
0.0
 70
0
 71
8
 72
2
 74
0
 75
0
 41
1.0
 42
0.0
  1

  3
Standard
100
AcDbAlignedDimension
 13
1023.8699473183679629
 23
554.6408949083577227
 33
0.0
 14
1020.8699473183679629
 24
557.6408949083577227
 34
0.0
 50
0.0
100
AcDbRotatedDimension
1001
ACAD
1000
DSTYLE
1002
{
1070
144
1040
1.0
1070
40
1040
2.0
1002
}
  0
DIMENSION
  5
A3
100
AcDbEntity
  8
dim
 62
256
370
-1
 48
1.0
  6
ByLayer
100
AcDbDimension
 10
1343.8699473183680766
 20
564.2858537288439038
 30
0.0
 11
1337.8216513983286404
 21
568.0358537288439038
 31
0.0
 70
0
 71
8
 72
2
 74
0
 75
0
 41
1.0
 42
0.0
  1

  3
Standard
100
AcDbAlignedDimension
 13
1343.8699473183680766
 23
554.6408949083574953
 33
0.0
 14
1340.8699473183680766
 24
557.6408949083573816
 34
0.0
 50
0.0
100
AcDbRotatedDimension
1001
ACAD
1000
DSTYLE
1002
{
1070
144
1040
1.0
1070
40
1040
2.0
1002
}
  0
DIMENSION
  5
A4
100
AcDbEntity
  8
dim
 62
256
370
-1
 48
1.0
  6
ByLayer
100
AcDbDimension
 10
1043.8699473183680766
 20
546.0
 30
0.0
 11
1036.0
 21
550.0
 31
0.0
 70
128
 71
8
 72
2
 74
0
 75
0
 41
1.0
 42
0.0
  1

  3
Standard
100
AcDbAlignedDimension
 13
1043.8699473183680766
 23
540.6408949083578364
 33
0.0
 14
1049.0038685660090323
 24
540.6408949083578364
 34
0.0
 50
0.0
100
AcDbRotatedDimension
1001
ACAD
1000
DSTYLE
1002
{
1070
279
1070
2
1070
144
1040
1.0
1070
40
1040
2.0
1002
}
  0
DIMENSION
  5
A5
100
AcDbEntity
  8
dim
 62
256
370
-1
 48
1.0
  6
ByLayer
100
AcDbDimension
 10
1363.869947318368304
 20
545.9999999999998863
 30
0.0
 11
1356.0
 21
549.9999999999998863
 31
0.0
 70
128
 71
8
 72
2
 74
0
 75
0
 41
1.0
 42
0.0
  1

  3
Standard
100
AcDbAlignedDimension
 13
1363.869947318368304
 23
540.6408949083578364
 33
0.0
 14
1369.0038685660092597
 24
540.6408949083578364
 34
0.0
 50
0.0
100
AcDbRotatedDimension
1001
ACAD
1000
DSTYLE
1002
{
1070
279
1070
2
1070
144
1040
1.0
1070
40
1040
2.0
1002
}
  0
LINE
  5
A6
100
AcDbEntity
  8
0
 62
256
370
-1
 48
1.0
  6
ByLayer
100
AcDbLine
 10
1360.869947318368304
 20
510.6408949083577227
 30
0.0
 11
1360.869947318368304
 21
510.6408949083577227
 31
0.0
  0
LINE
  5
A7
100
AcDbEntity
  8
0
 62
256
370
-1
 48
1.0
  6
ByLayer
100
AcDbLine
 10
1360.869947318368304
 20
510.6408949083577227
 30
0.0
 11
1360.869947318368304
 21
507.6408949083577227
 31
0.0
  0
LINE
  5
A8
100
AcDbEntity
  8
0
 62
256
370
-1
 48
1.0
  6
ByLayer
100
AcDbLine
 10
1120.8699473183680766
 20
507.6408949083577227
 30
0.0
 11
1120.869947318368304
 21
509.6408949083577795
 31
0.0
  0
LINE
  5
A9
100
AcDbEntity
  8
0
 62
256
370
-1
 48
1.0
  6
ByLayer
100
AcDbLine
 10
1440.869947318368304
 20
507.6408949083577227
 30
0.0
 11
1440.869947318368304
 21
510.6408949083577227
 31
0.0
  0
LWPOLYLINE
  5
AA
100
AcDbEntity
  8
0
 62
256
370
-1
 48
1.0
  6
ByLayer
100
AcDbPolyline
 90
4
 70
129
 10
1376.869947318368304
 20
488.1408949083577227
 10
1432.869947318368304
 20
488.1408949083577227
 10
1432.869947318368304
 20
545.1408949083577227
 10
1376.869947318368304
 20
545.1408949083577227
  0
LINE
  5
AB
100
AcDbEntity
  8
AXLE
 62
256
370
-1
 48
1.0
  6
ByLayer
100
AcDbLine
 10
1185.3686218846301017
 20
507.6408949083578932
 30
0.0
 11
1294.81301798692175
 21
507.6408949083578932
 31
0.0
  0
ARC
  5
AC
100
AcDbEntity
  8
0
 62
256
370
-1
 48
1.0
  6
ACAD_ISO02W100
100
AcDbCircle
 10
1240.8699473183680766
 20
507.6408949083577227
 30
0.0
 40
218.0
100
AcDbArc
 50
180.0
 51
270.0
  0
ARC
  5
AD
100
AcDbEntity
  8
0
 62
256
370
-1
 48
1.0
  6
ACAD_ISO02W100
100
AcDbCircle
 10
1240.8699473183680766
 20
507.6408949083577227
 30
0.0
 40
102.0
100
AcDbArc
 50
180.0
 51
270.0
  0
DIMENSION
  5
AE
100
AcDbEntity
  8
dim
 62
256
370
-1
 48
1.0
  6
ByLayer
100
AcDbDimension
 10
998.865531179796335
 20
515.6408949083574953
 30
0.0
 11
995.115531179796335
 21
485.640894908357609
 31
0.0
 70
0
 71
8
 72
2
 74
0
 75
0
 41
1.0
 42
0.0
  1

  3
Standard
100
AcDbAlignedDimension
 13
1028.8699473183680766
 23
515.6408949083574953
 33
0.0
 14
1038.8699473183680766
 24
455.6408949083577227
 34
0.0
 50
90.0
100
AcDbRotatedDimension
1001
ACAD
1000
DSTYLE
1002
{
1070
144
1040
1.0
1070
40
1040
2.0
1002
}
  0
DIMENSION
  5
AF
100
AcDbEntity
  8
dim
 62
256
370
-1
 48
1.0
  6
ByLayer
100
AcDbDimension
 10
1240.8699473183680766
 20
507.6408949083577227
 30
0.0
 11
1193.7934516922184685
 21
490.382098323394473
 31
0.0
 70
4
 71
8
 72
2
 74
0
 41
1.0
 42
0.0
  1

  3
Standard
100
AcDbRadialDimension
 15
1149.8179430776676782
 25
466.2944014203786764
 35
0.0
 40
0.0
1001
ACAD
1000
DSTYLE
1002
{
1070
144
1040
1.0
1070
40
1040
2.0
1002
}
  0
LWPOLYLINE
  5
B0
100
AcDbEntity
  8
0
 62
256
370
-1
 48
1.0
  6
ByLayer
100
AcDbPolyline
 90
4
 70
129
 10
1038.8699473183680766
 20
439.6408949083577227
 10
1050.8699473183680766
 20
439.6408949083577227
 10
1050.8699473183680766
 20
471.6408949083577227
 10
1038.8699473183680766
 20
471.6408949083577227
  0
LWPOLYLINE
  5
B1
100
AcDbEntity
  8
0
 62
256
370
-1
 48
1.0
  6
ByLayer
100
AcDbPolyline
 90
4
 70
129
 10
1038.8699473183680766
 20
591.6408949083577227
 10
1050.8699473183680766
 20
591.6408949083577227
 10
1050.8699473183680766
 20
559.6408949083577227
 10
1038.8699473183680766
 20
559.6408949083577227
  0
LWPOLYLINE
  5
B2
100
AcDbEntity
  8
0
 62
256
370
-1
 48
1.0
  6
ByLayer
100
AcDbPolyline
 90
4
 70
129
 10
1070.8699473183680766
 20
471.6408949083577227
 10
1070.8699473183680766
 20
483.6408949083577227
 10
1038.8699473183680766
 20
483.6408949083577227
 10
1038.8699473183680766
 20
471.6408949083577227
  0
LWPOLYLINE
  5
B3
100
AcDbEntity
  8
0
 62
256
370
-1
 48
1.0
  6
ByLayer
100
AcDbPolyline
 90
4
 70
129
 10
1122.8699473183680766
 20
439.6408949083577227
 10
1110.8699473183680766
 20
439.6408949083577227
 10
1110.8699473183680766
 20
471.6408949083577227
 10
1122.8699473183680766
 20
471.6408949083577227
  0
LWPOLYLINE
  5
B4
100
AcDbEntity
  8
0
 62
256
370
-1
 48
1.0
  6
ByLayer
100
AcDbPolyline
 90
4
 70
129
 10
1122.8699473183680766
 20
591.6408949083577227
 10
1110.8699473183680766
 20
591.6408949083577227
 10
1110.8699473183680766
 20
559.6408949083577227
 10
1122.8699473183680766
 20
559.6408949083577227
  0
CIRCLE
  5
B5
100
AcDbEntity
  8
0
 62
256
370
-1
 48
1.0
  6
ByLayer
100
AcDbCircle
 10
1039.8699473183678492
 20
510.6408949083577227
 30
0.0
 40
16.0
  0
CIRCLE
  5
B6
100
AcDbEntity
  8
0
 62
256
370
-1
 48
1.0
  6
ByLayer
100
AcDbCircle
 10
1121.869947318368304
 20
510.6408949083577227
 30
0.0
 40
16.0
  0
LWPOLYLINE
  5
B7
100
AcDbEntity
  8
0
 62
256
370
-1
 48
1.0
  6
ByLayer
100
AcDbPolyline
 90
6
 70
0
 10
1040.8699473183680766
 20
509.6408949083577227
 10
1022.8699473183678492
 20
509.6408949083577227
 10
1022.8699473183679629
 20
555.6408949083577227
 10
1138.8699473183680766
 20
555.6408949083577227
 10
1138.8699473183680766
 20
509.6408949083577795
 10
1120.869947318368304
 20
509.6408949083577795
  0
LWPOLYLINE
  5
B8
100
AcDbEntity
  8
0
 62
256
370
-1
 48
1.0
  6
ByLayer
100
AcDbPolyline
 90
2
 70
0
 10
1040.8699473183680766
 20
509.6408949083577227
 10
1040.8699473183680766
 20
507.6408949083577227
  0
ENDSEC
  0
SECTION
  2
OBJECTS
  0
DICTIONARY
  5
C
100
AcDbDictionary
280
0
281
1
  3
ACAD_GROUP
350
D
  3
ACAD_LAYOUT
350
1A
  3
ACAD_MLINESTYLE
350
17
  3
ACAD_PLOTSETTINGS
350
19
  3
ACAD_PLOTSTYLENAME
350
E
  3
AcDbVariableDictionary
350
B9
  3
QCAD_OBJECTS
350
BA
  0
DICTIONARY
  5
D
100
AcDbDictionary
280
0
281
1
  0
ACDBDICTIONARYWDFLT
  5
E
100
AcDbDictionary
281
1
  3
Normal
350
F
100
AcDbDictionaryWithDefault
340
F
  0
ACDBPLACEHOLDER
  5
F
  0
DICTIONARY
  5
17
100
AcDbDictionary
280
0
281
1
  3
Standard
350
18
  0
MLINESTYLE
  5
18
100
AcDbMlineStyle
  2
STANDARD
 70
0
  3

 62
256
 51
90.0
 52
90.0
 71
2
 49
0.5
 62
256
  6
BYLAYER
 49
-0.5
 62
256
  6
BYLAYER
  0
DICTIONARY
  5
19
100
AcDbDictionary
280
0
281
1
  0
DICTIONARY
  5
1A
100
AcDbDictionary
281
1
  3
Layout1
350
1E
  3
Layout2
350
26
  3
Model
350
22
  0
LAYOUT
  5
1E
100
AcDbPlotSettings
  1

  2
none_device
  4

  6

 40
0.0
 41
0.0
 42
0.0
 43
0.0
 44
0.0
 45
0.0
 46
0.0
 47
0.0
 48
0.0
 49
0.0
140
0.0
141
0.0
142
1.0
143
1.0
 70
688
 72
0
 73
0
 74
5
  7

 75
16
147
1.0
148
0.0
149
0.0
100
AcDbLayout
  1
Layout1
 70
1
 71
1
 10
0.0
 20
0.0
 11
420.0
 21
297.0
 12
0.0
 22
0.0
 32
0.0
 14
100000000000000000000.0
 24
100000000000000000000.0
 34
100000000000000000000.0
 15
-100000000000000000000.0
 25
-100000000000000000000.0
 35
-100000000000000000000.0
146
0.0
 13
0.0
 23
0.0
 33
0.0
 16
1.0
 26
0.0
 36
0.0
 17
0.0
 27
1.0
 37
0.0
 76
0
330
1B
  0
LAYOUT
  5
22
100
AcDbPlotSettings
  1

  2
none_device
  4

  6

 40
0.0
 41
0.0
 42
0.0
 43
0.0
 44
0.0
 45
0.0
 46
0.0
 47
0.0
 48
0.0
 49
0.0
140
0.0
141
0.0
142
1.0
143
1.0
 70
1712
 72
0
 73
0
 74
0
  7

 75
0
147
1.0
148
0.0
149
0.0
100
AcDbLayout
  1
Model
 70
1
 71
0
 10
0.0
 20
0.0
 11
12.0
 21
9.0
 12
0.0
 22
0.0
 32
0.0
 14
0.0
 24
0.0
 34
0.0
 15
0.0
 25
0.0
 35
0.0
146
0.0
 13
0.0
 23
0.0
 33
0.0
 16
1.0
 26
0.0
 36
0.0
 17
0.0
 27
1.0
 37
0.0
 76
0
330
1F
  0
LAYOUT
  5
26
100
AcDbPlotSettings
  1

  2
none_device
  4

  6

 40
0.0
 41
0.0
 42
0.0
 43
0.0
 44
0.0
 45
0.0
 46
0.0
 47
0.0
 48
0.0
 49
0.0
140
0.0
141
0.0
142
1.0
143
1.0
 70
688
 72
0
 73
0
 74
5
  7

 75
16
147
1.0
148
0.0
149
0.0
100
AcDbLayout
  1
Layout2
 70
1
 71
2
 10
0.0
 20
0.0
 11
12.0
 21
9.0
 12
0.0
 22
0.0
 32
0.0
 14
0.0
 24
0.0
 34
0.0
 15
0.0
 25
0.0
 35
0.0
146
0.0
 13
0.0
 23
0.0
 33
0.0
 16
1.0
 26
0.0
 36
0.0
 17
0.0
 27
1.0
 37
0.0
 76
0
330
23
  0
DICTIONARY
  5
B9
100
AcDbDictionary
281
1
  3
DIMASSOC
350
BC
  3
HIDETEXT
350
BB
  0
DICTIONARYVAR
  5
BB
100
DictionaryVariables
280
0
  1
2
  0
DICTIONARYVAR
  5
BC
100
DictionaryVariables
280
0
  1
1
  0
DICTIONARY
  5
BA
100
AcDbDictionary
281
1
  3
ColorSettings/BackgroundColor
350
BD
  3
ColorSettings/ColorMode
350
BE
  3
DimensionSettings/AngularFormat
350
BF
  3
DimensionSettings/AngularPrecision
350
C0
  3
DimensionSettings/DecimalPoint
350
C1
  3
DimensionSettings/DimensionFont
350
C2
  3
DimensionSettings/DimensionTextColor
350
C3
  3
DimensionSettings/KeepProportions
350
C4
  3
DimensionSettings/LinearFormat
350
C5
  3
DimensionSettings/LinearPrecision
350
C6
  3
Grid/DisplayGrid00
350
C7
  3
Grid/DisplayGrid01
350
C8
  3
Grid/DisplayGrid02
350
C9
  3
Grid/DisplayGrid03
350
CA
  3
Grid/GridSpacingX00
350
CB
  3
Grid/GridSpacingX01
350
CC
  3
Grid/GridSpacingX02
350
CD
  3
Grid/GridSpacingX03
350
CE
  3
Grid/GridSpacingY00
350
CF
  3
Grid/GridSpacingY01
350
D0
  3
Grid/GridSpacingY02
350
D1
  3
Grid/GridSpacingY03
350
D2
  3
Grid/IsometricGrid00
350
D3
  3
Grid/IsometricGrid01
350
D4
  3
Grid/IsometricGrid02
350
D5
  3
Grid/IsometricGrid03
350
D6
  3
Grid/IsometricProjection00
350
D7
  3
Grid/IsometricProjection01
350
D8
  3
Grid/IsometricProjection02
350
D9
  3
Grid/IsometricProjection03
350
DA
  3
Grid/MetaGridSpacingX00
350
DB
  3
Grid/MetaGridSpacingX01
350
DC
  3
Grid/MetaGridSpacingX02
350
DD
  3
Grid/MetaGridSpacingX03
350
DE
  3
Grid/MetaGridSpacingY00
350
DF
  3
Grid/MetaGridSpacingY01
350
E0
  3
Grid/MetaGridSpacingY02
350
E1
  3
Grid/MetaGridSpacingY03
350
E2
  3
LinetypeSettings/PSLTSCALE
350
E3
  3
MultiPageSettings/Columns
350
E4
  3
MultiPageSettings/GlueMarginsBottom
350
E5
  3
MultiPageSettings/GlueMarginsLeft
350
E6
  3
MultiPageSettings/GlueMarginsRight
350
E7
  3
MultiPageSettings/GlueMarginsTop
350
E8
  3
MultiPageSettings/PrintCropMarks
350
E9
  3
MultiPageSettings/Rows
350
EA
  3
PageSettings/OffsetX
350
EB
  3
PageSettings/OffsetY
350
EC
  3
PageSettings/PageOrientation
350
ED
  3
PageSettings/PaperHeight
350
EE
  3
PageSettings/PaperSizeName
350
EF
  3
PageSettings/PaperWidth
350
F0
  3
PageSettings/PointSize
350
F1
  3
PageSettings/Scale
350
F2
  3
PageSettings/ShowPaperBorders
350
F3
  3
PageTagSettings/EnablePageTags
350
F4
  3
PageTagSettings/TagAlignment
350
F5
  3
PageTagSettings/TagFont
350
F6
  3
PageTagSettings/TagPosition
350
F7
  3
QCADVersion
350
F8
  3
UnitSettings/PaperUnit
350
F9
  3
ViewportCenter
350
FA
  3
ViewportHeight
350
FB
  3
ViewportWidth
350
FC
  0
XRECORD
  5
BD
330
BA
100
AcDbXrecord
280
1
1000
#ffffff
  0
XRECORD
  5
BE
330
BA
100
AcDbXrecord
280
1
1000
FullColor
  0
XRECORD
  5
BF
330
BA
100
AcDbXrecord
280
1
 90
0
  0
XRECORD
  5
C0
330
BA
100
AcDbXrecord
280
1
 90
0
  0
XRECORD
  5
C1
330
BA
100
AcDbXrecord
280
1
 90
46
  0
XRECORD
  5
C2
330
BA
100
AcDbXrecord
280
1
1000
Noto Sans
  0
XRECORD
  5
C3
330
BA
100
AcDbXrecord
280
1
1000
Black
  0
XRECORD
  5
C4
330
BA
100
AcDbXrecord
280
1
290
1
  0
XRECORD
  5
C5
330
BA
100
AcDbXrecord
280
1
 90
2
  0
XRECORD
  5
C6
330
BA
100
AcDbXrecord
280
1
 90
0
  0
XRECORD
  5
C7
330
BA
100
AcDbXrecord
280
1
290
0
  0
XRECORD
  5
C8
330
BA
100
AcDbXrecord
280
1
290
1
  0
XRECORD
  5
C9
330
BA
100
AcDbXrecord
280
1
290
1
  0
XRECORD
  5
CA
330
BA
100
AcDbXrecord
280
1
290
1
  0
XRECORD
  5
CB
330
BA
100
AcDbXrecord
280
1
1000
auto
  0
XRECORD
  5
CC
330
BA
100
AcDbXrecord
280
1
1000
auto
  0
XRECORD
  5
CD
330
BA
100
AcDbXrecord
280
1
1000
auto
  0
XRECORD
  5
CE
330
BA
100
AcDbXrecord
280
1
1000
auto
  0
XRECORD
  5
CF
330
BA
100
AcDbXrecord
280
1
1000
auto
  0
XRECORD
  5
D0
330
BA
100
AcDbXrecord
280
1
1000
auto
  0
XRECORD
  5
D1
330
BA
100
AcDbXrecord
280
1
1000
auto
  0
XRECORD
  5
D2
330
BA
100
AcDbXrecord
280
1
1000
auto
  0
XRECORD
  5
D3
330
BA
100
AcDbXrecord
280
1
290
0
  0
XRECORD
  5
D4
330
BA
100
AcDbXrecord
280
1
290
0
  0
XRECORD
  5
D5
330
BA
100
AcDbXrecord
280
1
290
0
  0
XRECORD
  5
D6
330
BA
100
AcDbXrecord
280
1
290
0
  0
XRECORD
  5
D7
330
BA
100
AcDbXrecord
280
1
 90
65537
  0
XRECORD
  5
D8
330
BA
100
AcDbXrecord
280
1
 90
65537
  0
XRECORD
  5
D9
330
BA
100
AcDbXrecord
280
1
 90
65537
  0
XRECORD
  5
DA
330
BA
100
AcDbXrecord
280
1
 90
65537
  0
XRECORD
  5
DB
330
BA
100
AcDbXrecord
280
1
1000
auto
  0
XRECORD
  5
DC
330
BA
100
AcDbXrecord
280
1
1000
auto
  0
XRECORD
  5
DD
330
BA
100
AcDbXrecord
280
1
1000
auto
  0
XRECORD
  5
DE
330
BA
100
AcDbXrecord
280
1
1000
auto
  0
XRECORD
  5
DF
330
BA
100
AcDbXrecord
280
1
1000
auto
  0
XRECORD
  5
E0
330
BA
100
AcDbXrecord
280
1
1000
auto
  0
XRECORD
  5
E1
330
BA
100
AcDbXrecord
280
1
1000
auto
  0
XRECORD
  5
E2
330
BA
100
AcDbXrecord
280
1
1000
auto
  0
XRECORD
  5
E3
330
BA
100
AcDbXrecord
280
1
290
1
  0
XRECORD
  5
E4
330
BA
100
AcDbXrecord
280
1
 90
1
  0
XRECORD
  5
E5
330
BA
100
AcDbXrecord
280
1
 40
10.0
  0
XRECORD
  5
E6
330
BA
100
AcDbXrecord
280
1
 40
10.0
  0
XRECORD
  5
E7
330
BA
100
AcDbXrecord
280
1
 40
10.0
  0
XRECORD
  5
E8
330
BA
100
AcDbXrecord
280
1
 40
10.0
  0
XRECORD
  5
E9
330
BA
100
AcDbXrecord
280
1
290
0
  0
XRECORD
  5
EA
330
BA
100
AcDbXrecord
280
1
 90
1
  0
XRECORD
  5
EB
330
BA
100
AcDbXrecord
280
1
 40
0.0
  0
XRECORD
  5
EC
330
BA
100
AcDbXrecord
280
1
 40
0.0
  0
XRECORD
  5
ED
330
BA
100
AcDbXrecord
280
1
1000
Portrait
  0
XRECORD
  5
EE
330
BA
100
AcDbXrecord
280
1
 40
297.0
  0
XRECORD
  5
EF
330
BA
100
AcDbXrecord
280
1
1000
ISO A4
  0
XRECORD
  5
F0
330
BA
100
AcDbXrecord
280
1
 40
210.0
  0
XRECORD
  5
F1
330
BA
100
AcDbXrecord
280
1
1000
0.5
  0
XRECORD
  5
F2
330
BA
100
AcDbXrecord
280
1
1000
1:1
  0
XRECORD
  5
F3
330
BA
100
AcDbXrecord
280
1
290
1
  0
XRECORD
  5
F4
330
BA
100
AcDbXrecord
280
1
290
0
  0
XRECORD
  5
F5
330
BA
100
AcDbXrecord
280
1
1000
Inside
  0
XRECORD
  5
F6
330
BA
100
AcDbXrecord
280
1
1000
Arial,10,-1,5,50,0,0,0,0,0
  0
XRECORD
  5
F7
330
BA
100
AcDbXrecord
280
1
1000
TopLeft
  0
XRECORD
  5
F8
330
BA
100
AcDbXrecord
280
1
1000
3.32.4
  0
XRECORD
  5
F9
330
BA
100
AcDbXrecord
280
1
 90
4
  0
XRECORD
  5
FB
330
BA
100
AcDbXrecord
280
1
 40
339.6528864529618659
  0
XRECORD
  5
FC
330
BA
100
AcDbXrecord
280
1
 40
584.9577488912120771
  0
ENDSEC
  0
EOF
